<mxfile host="www.draw.io" modified="2019-12-16T19:45:30.550Z" agent="Mozilla/5.0 (Macintosh; Intel Mac OS X 10_12_6) AppleWebKit/537.36 (KHTML, like Gecko) Chrome/79.0.3945.79 Safari/537.36" etag="jqanw1zkGR7-OQsJBbGQ" version="12.4.2" type="github" pages="1">
  <diagram id="QNfwfn5JI8Tkmf6PVl0w" name="Page-1">
    <mxGraphModel dx="1186" dy="614" grid="1" gridSize="10" guides="1" tooltips="1" connect="1" arrows="1" fold="1" page="1" pageScale="1" pageWidth="850" pageHeight="1100" math="0" shadow="0">
      <root>
        <mxCell id="0"/>
        <mxCell id="1" parent="0"/>
        <mxCell id="57Ivh-c8JjiExphYt2KF-1" value="" style="outlineConnect=0;fontColor=#232F3E;gradientColor=#4D72F3;gradientDirection=north;fillColor=#3334B9;strokeColor=#ffffff;dashed=0;verticalLabelPosition=bottom;verticalAlign=top;align=center;html=1;fontSize=12;fontStyle=0;aspect=fixed;shape=mxgraph.aws4.resourceIcon;resIcon=mxgraph.aws4.dynamodb;" vertex="1" parent="1">
          <mxGeometry x="320" y="429" width="78" height="78" as="geometry"/>
        </mxCell>
        <mxCell id="57Ivh-c8JjiExphYt2KF-2" value="" style="outlineConnect=0;fontColor=#232F3E;gradientColor=#4D72F3;gradientDirection=north;fillColor=#3334B9;strokeColor=#ffffff;dashed=0;verticalLabelPosition=bottom;verticalAlign=top;align=center;html=1;fontSize=12;fontStyle=0;aspect=fixed;shape=mxgraph.aws4.resourceIcon;resIcon=mxgraph.aws4.dynamodb;" vertex="1" parent="1">
          <mxGeometry x="659" y="428" width="80" height="80" as="geometry"/>
        </mxCell>
        <mxCell id="57Ivh-c8JjiExphYt2KF-3" value="" style="outlineConnect=0;fontColor=#232F3E;gradientColor=#F78E04;gradientDirection=north;fillColor=#D05C17;strokeColor=#ffffff;dashed=0;verticalLabelPosition=bottom;verticalAlign=top;align=center;html=1;fontSize=12;fontStyle=0;aspect=fixed;shape=mxgraph.aws4.resourceIcon;resIcon=mxgraph.aws4.lambda;" vertex="1" parent="1">
          <mxGeometry x="506" y="240" width="78" height="78" as="geometry"/>
        </mxCell>
        <mxCell id="57Ivh-c8JjiExphYt2KF-4" value="" style="outlineConnect=0;fontColor=#232F3E;gradientColor=#F78E04;gradientDirection=north;fillColor=#D05C17;strokeColor=#ffffff;dashed=0;verticalLabelPosition=bottom;verticalAlign=top;align=center;html=1;fontSize=12;fontStyle=0;aspect=fixed;shape=mxgraph.aws4.resourceIcon;resIcon=mxgraph.aws4.lambda;" vertex="1" parent="1">
          <mxGeometry x="160" y="240" width="78" height="78" as="geometry"/>
        </mxCell>
        <mxCell id="57Ivh-c8JjiExphYt2KF-5" value="" style="outlineConnect=0;fontColor=#232F3E;gradientColor=#F34482;gradientDirection=north;fillColor=#BC1356;strokeColor=#ffffff;dashed=0;verticalLabelPosition=bottom;verticalAlign=top;align=center;html=1;fontSize=12;fontStyle=0;aspect=fixed;shape=mxgraph.aws4.resourceIcon;resIcon=mxgraph.aws4.sqs;" vertex="1" parent="1">
          <mxGeometry x="322" y="240" width="78" height="78" as="geometry"/>
        </mxCell>
        <mxCell id="57Ivh-c8JjiExphYt2KF-6" value="" style="outlineConnect=0;fontColor=#232F3E;gradientColor=#F34482;gradientDirection=north;fillColor=#BC1356;strokeColor=#ffffff;dashed=0;verticalLabelPosition=bottom;verticalAlign=top;align=center;html=1;fontSize=12;fontStyle=0;aspect=fixed;shape=mxgraph.aws4.resourceIcon;resIcon=mxgraph.aws4.sns;" vertex="1" parent="1">
          <mxGeometry x="669" y="240" width="78" height="78" as="geometry"/>
        </mxCell>
        <mxCell id="57Ivh-c8JjiExphYt2KF-7" value="" style="edgeStyle=orthogonalEdgeStyle;html=1;endArrow=block;elbow=vertical;startArrow=none;endFill=1;strokeColor=#545B64;rounded=0;" edge="1" parent="1">
          <mxGeometry width="100" relative="1" as="geometry">
            <mxPoint x="240" y="280" as="sourcePoint"/>
            <mxPoint x="320" y="280" as="targetPoint"/>
          </mxGeometry>
        </mxCell>
        <mxCell id="57Ivh-c8JjiExphYt2KF-8" value="" style="edgeStyle=orthogonalEdgeStyle;html=1;endArrow=block;elbow=vertical;startArrow=none;endFill=1;strokeColor=#545B64;rounded=0;" edge="1" parent="1">
          <mxGeometry width="100" relative="1" as="geometry">
            <mxPoint x="404" y="257" as="sourcePoint"/>
            <mxPoint x="504" y="257" as="targetPoint"/>
            <Array as="points">
              <mxPoint x="443.5" y="256.5"/>
              <mxPoint x="443.5" y="256.5"/>
            </Array>
          </mxGeometry>
        </mxCell>
        <mxCell id="57Ivh-c8JjiExphYt2KF-9" value="" style="edgeStyle=orthogonalEdgeStyle;html=1;endArrow=block;elbow=vertical;startArrow=none;endFill=1;strokeColor=#545B64;rounded=0;" edge="1" parent="1" source="57Ivh-c8JjiExphYt2KF-3" target="57Ivh-c8JjiExphYt2KF-6">
          <mxGeometry width="100" relative="1" as="geometry">
            <mxPoint x="590" y="279" as="sourcePoint"/>
            <mxPoint x="600" y="189" as="targetPoint"/>
          </mxGeometry>
        </mxCell>
        <mxCell id="57Ivh-c8JjiExphYt2KF-10" value="Initiator" style="text;html=1;strokeColor=none;fillColor=none;align=center;verticalAlign=middle;whiteSpace=wrap;rounded=0;" vertex="1" parent="1">
          <mxGeometry x="160" y="220" width="80" height="20" as="geometry"/>
        </mxCell>
        <mxCell id="57Ivh-c8JjiExphYt2KF-11" value="Notifier" style="text;html=1;strokeColor=none;fillColor=none;align=center;verticalAlign=middle;whiteSpace=wrap;rounded=0;" vertex="1" parent="1">
          <mxGeometry x="504" y="220" width="80" height="20" as="geometry"/>
        </mxCell>
        <mxCell id="57Ivh-c8JjiExphYt2KF-12" value="UDC Queue" style="text;html=1;strokeColor=none;fillColor=none;align=center;verticalAlign=middle;whiteSpace=wrap;rounded=0;" vertex="1" parent="1">
          <mxGeometry x="330" y="220" width="70" height="20" as="geometry"/>
        </mxCell>
        <mxCell id="57Ivh-c8JjiExphYt2KF-13" value="" style="endArrow=none;html=1;" edge="1" parent="1">
          <mxGeometry width="50" height="50" relative="1" as="geometry">
            <mxPoint x="747" y="278" as="sourcePoint"/>
            <mxPoint x="840" y="278" as="targetPoint"/>
            <Array as="points">
              <mxPoint x="797" y="278"/>
              <mxPoint x="747" y="278"/>
            </Array>
          </mxGeometry>
        </mxCell>
        <mxCell id="57Ivh-c8JjiExphYt2KF-14" value="" style="endArrow=none;html=1;" edge="1" parent="1">
          <mxGeometry width="50" height="50" relative="1" as="geometry">
            <mxPoint x="840" y="400" as="sourcePoint"/>
            <mxPoint x="840" y="190" as="targetPoint"/>
            <Array as="points">
              <mxPoint x="840" y="280"/>
              <mxPoint x="840" y="180"/>
              <mxPoint x="840" y="150"/>
            </Array>
          </mxGeometry>
        </mxCell>
        <mxCell id="57Ivh-c8JjiExphYt2KF-15" value="" style="endArrow=none;html=1;" edge="1" parent="1">
          <mxGeometry width="50" height="50" relative="1" as="geometry">
            <mxPoint x="840" y="399" as="sourcePoint"/>
            <mxPoint x="930" y="399" as="targetPoint"/>
            <Array as="points">
              <mxPoint x="890" y="399"/>
              <mxPoint x="840" y="399"/>
            </Array>
          </mxGeometry>
        </mxCell>
        <mxCell id="57Ivh-c8JjiExphYt2KF-16" value="" style="endArrow=none;html=1;" edge="1" parent="1">
          <mxGeometry width="50" height="50" relative="1" as="geometry">
            <mxPoint x="840" y="278" as="sourcePoint"/>
            <mxPoint x="930" y="278" as="targetPoint"/>
            <Array as="points">
              <mxPoint x="890" y="278"/>
              <mxPoint x="840" y="278"/>
            </Array>
          </mxGeometry>
        </mxCell>
        <mxCell id="57Ivh-c8JjiExphYt2KF-17" value="Notifier SNS" style="text;html=1;strokeColor=none;fillColor=none;align=center;verticalAlign=middle;whiteSpace=wrap;rounded=0;" vertex="1" parent="1">
          <mxGeometry x="669" y="220" width="70" height="20" as="geometry"/>
        </mxCell>
        <mxCell id="57Ivh-c8JjiExphYt2KF-18" value="Initial Request" style="text;html=1;strokeColor=none;fillColor=none;align=center;verticalAlign=middle;whiteSpace=wrap;rounded=0;" vertex="1" parent="1">
          <mxGeometry x="325" y="412" width="80" height="20" as="geometry"/>
        </mxCell>
        <mxCell id="57Ivh-c8JjiExphYt2KF-19" value="Serivices status" style="text;html=1;strokeColor=none;fillColor=none;align=center;verticalAlign=middle;whiteSpace=wrap;rounded=0;" vertex="1" parent="1">
          <mxGeometry x="650" y="412" width="89" height="20" as="geometry"/>
        </mxCell>
        <mxCell id="57Ivh-c8JjiExphYt2KF-20" value="" style="endArrow=none;html=1;" edge="1" parent="1" source="57Ivh-c8JjiExphYt2KF-34">
          <mxGeometry width="50" height="50" relative="1" as="geometry">
            <mxPoint x="840" y="152" as="sourcePoint"/>
            <mxPoint x="930" y="152" as="targetPoint"/>
            <Array as="points">
              <mxPoint x="890" y="152"/>
            </Array>
          </mxGeometry>
        </mxCell>
        <mxCell id="57Ivh-c8JjiExphYt2KF-21" value="&amp;nbsp; µservice2" style="rounded=1;whiteSpace=wrap;html=1;fillColor=#f8cecc;strokeColor=#b85450;" vertex="1" parent="1">
          <mxGeometry x="970" y="246" width="180" height="60" as="geometry"/>
        </mxCell>
        <mxCell id="57Ivh-c8JjiExphYt2KF-22" value="&amp;nbsp; µservice3" style="rounded=1;whiteSpace=wrap;html=1;fillColor=#f8cecc;strokeColor=#b85450;" vertex="1" parent="1">
          <mxGeometry x="970" y="362" width="180" height="60" as="geometry"/>
        </mxCell>
        <mxCell id="57Ivh-c8JjiExphYt2KF-23" value="&amp;nbsp; &amp;nbsp; &amp;nbsp;µservice1(uniqueid-sso" style="rounded=1;whiteSpace=wrap;html=1;fillColor=#f8cecc;strokeColor=#b85450;" vertex="1" parent="1">
          <mxGeometry x="970" y="129.5" width="180" height="60" as="geometry"/>
        </mxCell>
        <mxCell id="57Ivh-c8JjiExphYt2KF-24" value="" style="endArrow=classic;html=1;entryX=0.5;entryY=0;entryDx=0;entryDy=0;" edge="1" parent="1" target="57Ivh-c8JjiExphYt2KF-18">
          <mxGeometry width="50" height="50" relative="1" as="geometry">
            <mxPoint x="530" y="320" as="sourcePoint"/>
            <mxPoint x="170" y="690" as="targetPoint"/>
          </mxGeometry>
        </mxCell>
        <mxCell id="57Ivh-c8JjiExphYt2KF-25" value="" style="endArrow=classic;html=1;fillColor=#e51400;strokeColor=#FF3333;rounded=0;entryX=0.5;entryY=0;entryDx=0;entryDy=0;" edge="1" parent="1" target="57Ivh-c8JjiExphYt2KF-19">
          <mxGeometry width="50" height="50" relative="1" as="geometry">
            <mxPoint x="560" y="320" as="sourcePoint"/>
            <mxPoint x="650" y="420" as="targetPoint"/>
          </mxGeometry>
        </mxCell>
        <mxCell id="57Ivh-c8JjiExphYt2KF-26" value="" style="outlineConnect=0;fontColor=#232F3E;gradientColor=none;fillColor=#232F3E;strokeColor=none;dashed=0;verticalLabelPosition=bottom;verticalAlign=top;align=center;html=1;fontSize=12;fontStyle=0;aspect=fixed;pointerEvents=1;shape=mxgraph.aws4.user;" vertex="1" parent="1">
          <mxGeometry x="50" y="255" width="30" height="30" as="geometry"/>
        </mxCell>
        <mxCell id="57Ivh-c8JjiExphYt2KF-27" value="" style="edgeStyle=orthogonalEdgeStyle;html=1;endArrow=block;elbow=vertical;startArrow=none;endFill=1;strokeColor=#545B64;rounded=0;" edge="1" parent="1">
          <mxGeometry width="100" relative="1" as="geometry">
            <mxPoint x="80" y="275" as="sourcePoint"/>
            <mxPoint x="160" y="275" as="targetPoint"/>
          </mxGeometry>
        </mxCell>
        <mxCell id="57Ivh-c8JjiExphYt2KF-28" value="Forget Me" style="text;html=1;strokeColor=none;fillColor=none;align=center;verticalAlign=middle;whiteSpace=wrap;rounded=0;" vertex="1" parent="1">
          <mxGeometry x="80" y="250" width="60" height="20" as="geometry"/>
        </mxCell>
        <mxCell id="57Ivh-c8JjiExphYt2KF-29" value="" style="endArrow=classic;html=1;fillColor=#a20025;strokeColor=#FF0000;jumpStyle=gap;" edge="1" parent="1" source="57Ivh-c8JjiExphYt2KF-34">
          <mxGeometry width="50" height="50" relative="1" as="geometry">
            <mxPoint x="965" y="137.5" as="sourcePoint"/>
            <mxPoint x="350" y="212.5" as="targetPoint"/>
            <Array as="points">
              <mxPoint x="908" y="90"/>
              <mxPoint x="350" y="92.5"/>
            </Array>
          </mxGeometry>
        </mxCell>
        <mxCell id="57Ivh-c8JjiExphYt2KF-30" value="&lt;font color=&quot;#cc0000&quot;&gt;service status&amp;nbsp;&lt;/font&gt;" style="text;html=1;strokeColor=none;fillColor=none;align=center;verticalAlign=middle;whiteSpace=wrap;rounded=0;" vertex="1" parent="1">
          <mxGeometry x="536" y="60" width="168" height="25" as="geometry"/>
        </mxCell>
        <mxCell id="57Ivh-c8JjiExphYt2KF-31" value="" style="edgeStyle=orthogonalEdgeStyle;html=1;endArrow=block;elbow=vertical;startArrow=none;endFill=1;strokeColor=#FF3333;rounded=0;fillColor=#a20025;" edge="1" parent="1" source="57Ivh-c8JjiExphYt2KF-5" target="57Ivh-c8JjiExphYt2KF-3">
          <mxGeometry width="100" relative="1" as="geometry">
            <mxPoint x="406" y="290" as="sourcePoint"/>
            <mxPoint x="500" y="279" as="targetPoint"/>
            <Array as="points">
              <mxPoint x="440" y="300"/>
              <mxPoint x="440" y="300"/>
            </Array>
          </mxGeometry>
        </mxCell>
        <mxCell id="57Ivh-c8JjiExphYt2KF-32" value="&lt;font color=&quot;#ff0000&quot;&gt;service status&amp;nbsp;&lt;/font&gt;" style="text;html=1;strokeColor=none;fillColor=none;align=center;verticalAlign=middle;whiteSpace=wrap;rounded=0;" vertex="1" parent="1">
          <mxGeometry x="410" y="279" width="80" height="25" as="geometry"/>
        </mxCell>
        <mxCell id="57Ivh-c8JjiExphYt2KF-33" value="initail req" style="text;html=1;strokeColor=none;fillColor=none;align=center;verticalAlign=middle;whiteSpace=wrap;rounded=0;" vertex="1" parent="1">
          <mxGeometry x="400" y="235" width="80" height="25" as="geometry"/>
        </mxCell>
        <mxCell id="57Ivh-c8JjiExphYt2KF-34" value="" style="outlineConnect=0;fontColor=#232F3E;gradientColor=#F78E04;gradientDirection=north;fillColor=#D05C17;strokeColor=#ffffff;dashed=0;verticalLabelPosition=bottom;verticalAlign=top;align=center;html=1;fontSize=12;fontStyle=0;aspect=fixed;shape=mxgraph.aws4.resourceIcon;resIcon=mxgraph.aws4.lambda;" vertex="1" parent="1">
          <mxGeometry x="885" y="129" width="45" height="45" as="geometry"/>
        </mxCell>
        <mxCell id="57Ivh-c8JjiExphYt2KF-35" value="" style="endArrow=none;html=1;" edge="1" parent="1" target="57Ivh-c8JjiExphYt2KF-34">
          <mxGeometry width="50" height="50" relative="1" as="geometry">
            <mxPoint x="840" y="152" as="sourcePoint"/>
            <mxPoint x="930" y="152" as="targetPoint"/>
            <Array as="points"/>
          </mxGeometry>
        </mxCell>
        <mxCell id="57Ivh-c8JjiExphYt2KF-36" value="" style="endArrow=none;html=1;" edge="1" parent="1" source="57Ivh-c8JjiExphYt2KF-34">
          <mxGeometry width="50" height="50" relative="1" as="geometry">
            <mxPoint x="850" y="162" as="sourcePoint"/>
            <mxPoint x="950" y="152" as="targetPoint"/>
            <Array as="points">
              <mxPoint x="970" y="152"/>
              <mxPoint x="940" y="152"/>
            </Array>
          </mxGeometry>
        </mxCell>
        <mxCell id="57Ivh-c8JjiExphYt2KF-37" value="" style="outlineConnect=0;fontColor=#232F3E;gradientColor=#F78E04;gradientDirection=north;fillColor=#D05C17;strokeColor=#ffffff;dashed=0;verticalLabelPosition=bottom;verticalAlign=top;align=center;html=1;fontSize=12;fontStyle=0;aspect=fixed;shape=mxgraph.aws4.resourceIcon;resIcon=mxgraph.aws4.lambda;" vertex="1" parent="1">
          <mxGeometry x="887.5" y="253" width="45" height="45" as="geometry"/>
        </mxCell>
        <mxCell id="57Ivh-c8JjiExphYt2KF-38" value="" style="endArrow=none;html=1;" edge="1" parent="1" source="57Ivh-c8JjiExphYt2KF-37">
          <mxGeometry width="50" height="50" relative="1" as="geometry">
            <mxPoint x="852.5" y="286" as="sourcePoint"/>
            <mxPoint x="952.5" y="276" as="targetPoint"/>
            <Array as="points">
              <mxPoint x="972.5" y="276"/>
              <mxPoint x="942.5" y="276"/>
            </Array>
          </mxGeometry>
        </mxCell>
        <mxCell id="57Ivh-c8JjiExphYt2KF-39" value="" style="outlineConnect=0;fontColor=#232F3E;gradientColor=#F78E04;gradientDirection=north;fillColor=#D05C17;strokeColor=#ffffff;dashed=0;verticalLabelPosition=bottom;verticalAlign=top;align=center;html=1;fontSize=12;fontStyle=0;aspect=fixed;shape=mxgraph.aws4.resourceIcon;resIcon=mxgraph.aws4.lambda;" vertex="1" parent="1">
          <mxGeometry x="887.5" y="369" width="45" height="45" as="geometry"/>
        </mxCell>
        <mxCell id="57Ivh-c8JjiExphYt2KF-40" value="" style="endArrow=none;html=1;" edge="1" parent="1" source="57Ivh-c8JjiExphYt2KF-39">
          <mxGeometry width="50" height="50" relative="1" as="geometry">
            <mxPoint x="852.5" y="402" as="sourcePoint"/>
            <mxPoint x="952.5" y="392" as="targetPoint"/>
            <Array as="points">
              <mxPoint x="972.5" y="392"/>
              <mxPoint x="942.5" y="392"/>
            </Array>
          </mxGeometry>
        </mxCell>
        <mxCell id="57Ivh-c8JjiExphYt2KF-41" value="" style="outlineConnect=0;fontColor=#232F3E;gradientColor=#F78E04;gradientDirection=north;fillColor=#D05C17;strokeColor=#ffffff;dashed=0;verticalLabelPosition=bottom;verticalAlign=top;align=center;html=1;fontSize=12;fontStyle=0;aspect=fixed;shape=mxgraph.aws4.resourceIcon;resIcon=mxgraph.aws4.lambda;" vertex="1" parent="1">
          <mxGeometry x="480" y="429" width="78" height="78" as="geometry"/>
        </mxCell>
        <mxCell id="57Ivh-c8JjiExphYt2KF-42" value="" style="endArrow=classic;html=1;" edge="1" parent="1">
          <mxGeometry width="50" height="50" relative="1" as="geometry">
            <mxPoint x="558" y="451.5" as="sourcePoint"/>
            <mxPoint x="660" y="450" as="targetPoint"/>
          </mxGeometry>
        </mxCell>
        <mxCell id="57Ivh-c8JjiExphYt2KF-43" value="" style="endArrow=classic;html=1;" edge="1" parent="1" source="57Ivh-c8JjiExphYt2KF-41" target="57Ivh-c8JjiExphYt2KF-1">
          <mxGeometry width="50" height="50" relative="1" as="geometry">
            <mxPoint x="455" y="529" as="sourcePoint"/>
            <mxPoint x="430" y="468" as="targetPoint"/>
          </mxGeometry>
        </mxCell>
        <mxCell id="57Ivh-c8JjiExphYt2KF-44" value="" style="endArrow=classic;html=1;" edge="1" parent="1">
          <mxGeometry width="50" height="50" relative="1" as="geometry">
            <mxPoint x="658" y="470" as="sourcePoint"/>
            <mxPoint x="558" y="470" as="targetPoint"/>
          </mxGeometry>
        </mxCell>
        <mxCell id="57Ivh-c8JjiExphYt2KF-45" value="Monitor&amp;nbsp;" style="text;html=1;strokeColor=none;fillColor=none;align=center;verticalAlign=middle;whiteSpace=wrap;rounded=0;" vertex="1" parent="1">
          <mxGeometry x="478" y="404" width="82" height="20" as="geometry"/>
        </mxCell>
        <mxCell id="57Ivh-c8JjiExphYt2KF-46" value="update status" style="text;html=1;strokeColor=none;fillColor=none;align=center;verticalAlign=middle;whiteSpace=wrap;rounded=0;" vertex="1" parent="1">
          <mxGeometry x="398" y="468" width="80" height="20" as="geometry"/>
        </mxCell>
      </root>
    </mxGraphModel>
  </diagram>
</mxfile>
